<svg xmlns="http://www.w3.org/2000/svg" xmlns:xlink="http://www.w3.org/1999/xlink" width="24" height="24" viewBox="0 0 24 24"><defs><style>.a{fill:currentColor;}.b{clip-path:url(#c);}.c{filter:url(#d);}.d{filter:url(#a);}</style><filter id="a" x="-9" y="-6" width="42" height="42" filterUnits="userSpaceOnUse"><feOffset dy="3" input="SourceAlpha"/><feGaussianBlur stdDeviation="3" result="b"/><feFlood flood-opacity="0.149"/><feComposite operator="in" in2="b"/><feComposite in="SourceGraphic"/></filter><g class="d" transform="matrix(1, 0, 0, 1, 0, 0)"><rect class="a" width="24" height="24"/></g><filter id="d" x="-5" y="-2" width="34" height="34" filterUnits="userSpaceOnUse"><feOffset dy="3" input="SourceAlpha"/><feGaussianBlur stdDeviation="3" result="e"/><feFlood flood-opacity="0.149"/><feComposite operator="in" in2="e"/><feComposite in="SourceGraphic"/></filter></defs><g class="b"><g class="c" transform="matrix(1, 0, 0, 1, 0, 0)"><path class="a" d="M19.226,11.238a.774.774,0,0,0-.773.773A6.454,6.454,0,1,1,12,5.567h.008a6.444,6.444,0,0,1,4.513,1.846l-1.647.038a.772.772,0,0,0-.515,1.332A.8.8,0,0,0,14.91,9l3.017-.071a1.138,1.138,0,0,0,1.106-1.077l.154-3.038a.766.766,0,0,0-.2-.557A.777.777,0,0,0,18.454,4a.79.79,0,0,0-.558.2.767.767,0,0,0-.253.534l-.078,1.539A7.986,7.986,0,1,0,20,12.01a.774.774,0,0,0-.774-.772"/></g></g></svg>